<svg version="1" xmlns="http://www.w3.org/2000/svg" width="256" height="256" viewBox="0 0 192.000000 192.000000"><path d="M87.9 11.3c-5.5 2.1-9.5 5.3-11.3 9.1-2.2 4.7-2 6.7 1.3 13.7 2.7 5.6 2.7 6.1 1.2 7.9-.9 1.2-3.8 2.4-6.6 2.9-6 1.1-32.7.6-37.2-.8-5.1-1.5-7.7 1.7-12.7 15.7-2.6 7.4-4.4 19.1-2.9 19.3.4 0 1.7.2 2.8.4 1.1.2 5.2.6 9 .9 13.6 1.1 21.4 3.3 24.4 7 2.1 2.6 2.1 8.1-.1 12.5-4.2 8.5-11.8 11.9-27.3 12.3l-9 .3.1 4.5c.1 7.6 1.8 13.7 6.1 22.7 2.1 4.2 4.3 7.5 5.4 7.8 1.1.4 4.1.3 6.7 0 6.9-1 29.1-1.4 34.5-.5 2.6.4 5.6 1.5 6.6 2.4 1.9 1.7 1.9 1.9-1.1 8.4-4.7 10.4-2.5 16.8 7.6 21.7 7.1 3.5 14.9 3.3 22-.4 9.4-5 11.4-11.2 6.8-21-2.8-5.8-2.8-6.3-1.3-8.1.9-1.2 3.8-2.4 6.6-2.9 5.4-1 27.2-.8 34.7.4 2.5.4 5.5.4 6.6.1 3.7-1.2 10.4-17.5 11.6-28 .8-6.9-.1-7.6-9.8-7.6-14.4 0-23-4-26.8-12.7-1.9-4.4-1.7-9.5.5-12.1 1.6-2 8.8-5 13.4-5.6 7.8-1.2 11.9-1.6 17-1.7 4.8-.2 5.4-.5 6-2.7 1.5-6.2-7.5-31.4-11.8-32.7-1.1-.4-4.1-.3-6.7 0-6.9 1-29.1 1.4-34.5.5-2.6-.4-5.6-1.5-6.6-2.4-1.9-1.7-1.9-1.9 1.1-8.4 4.5-9.9 2.8-15.8-5.9-20.9-5.3-3.1-14.9-4-20.4-2z"/></svg>